<svg width="960" height="720" xmlns="http://www.w3.org/2000/svg" xmlns:xlink="http://www.w3.org/1999/xlink" overflow="hidden"><defs><clipPath id="clip0"><rect x="0" y="0" width="960" height="720"/></clipPath></defs><g clip-path="url(#clip0)"><rect x="0" y="0" width="960" height="720" fill="#003D59"/><rect x="0" y="177" width="960" height="354" fill="#FFFFFF"/><path d="M606.492 469.986C594.577 469.986 584.992 479.722 584.992 491.825 584.992 498.811 588.196 504.994 593.187 508.986 602.293 508.881 611.987 508.742 620.207 508.67 624.968 504.671 627.992 498.622 627.992 491.825 627.992 479.722 618.407 469.986 606.492 469.986Z" fill="#003D59" fill-rule="evenodd" fill-opacity="0.0588235"/><path d="M477.992 469.986C466.354 469.986 456.992 479.695 456.992 491.765 456.992 498.796 460.182 505.01 465.136 508.986L490.848 508.986C495.802 505.01 498.992 498.796 498.992 491.765 498.992 479.695 489.63 469.986 477.992 469.986Z" fill="#003D59" fill-rule="evenodd" fill-opacity="0.0588235"/><path d="M514.665 403.986C504.792 412.103 492.161 416.982 478.407 416.982 477.259 416.982 476.123 416.938 474.992 416.872L477.123 463.763C477.549 463.744 477.976 463.73 478.407 463.73 494.02 463.73 506.75 476.463 506.75 492.077 506.75 498.406 504.658 504.26 501.131 508.986L579.181 508.986C580.573 508.986 582.384 508.964 583.951 508.956 580.438 504.235 578.353 498.392 578.353 492.077 578.353 485.736 580.452 479.87 583.992 475.14Z" fill="#003D59" fill-rule="evenodd" fill-opacity="0.0588235"/><path d="M421.884 349.986 381.514 353.658C381.969 355.666 382.218 357.751 382.218 359.893 382.218 375.497 369.485 388.221 353.872 388.221 345.077 388.221 337.198 384.183 331.992 377.868L331.992 459.619C331.992 486.884 354.108 508.986 381.39 508.986L455.467 508.986C451.941 504.263 449.848 498.414 449.848 492.089 449.848 479.335 458.358 468.508 469.992 464.979L467.771 416.076C441.194 411.167 421.006 387.858 421.006 359.893 421.006 356.513 421.318 353.207 421.884 349.986Z" fill="#003D59" fill-rule="evenodd" fill-opacity="0.0588235"/><path d="M353.492 337.986C341.576 337.986 331.992 347.571 331.992 359.486 331.992 371.401 341.576 380.986 353.492 380.986 365.407 380.986 374.992 371.401 374.992 359.486 374.992 347.571 365.407 337.986 353.492 337.986Z" fill="#003D59" fill-rule="evenodd" fill-opacity="0.0588235"/><path d="M477.992 308.986C450.337 308.986 427.992 331.555 427.992 359.486 427.992 387.417 450.337 409.986 477.992 409.986 505.646 409.986 527.992 387.417 527.992 359.486 527.992 347.214 523.676 335.978 516.494 327.236 511.666 333.159 507.59 337.26 502.895 344.086 497.116 352.491 489.373 363.869 483.644 373.576 478.015 383.115 470.933 398.694 468.205 404.08 463.948 404.46 466.773 403.987 462.489 404.763 460.18 402.04 454.631 394.975 449.675 389.648 444.5 384.083 437.353 376.077 432.348 372.285L439.407 370.56C445.537 375.204 449.673 379.42 454.729 384.855 458.314 388.709 461.668 392.781 464.364 396.084 467.681 389.149 473.006 377.93 477.69 369.992L477.69 369.99C483.605 359.969 491.407 348.522 497.202 340.093L497.204 340.091C502.423 332.503 506.783 328.196 511.675 322.138 502.794 313.966 490.979 308.986 477.992 308.986Z" fill="#003D59" fill-rule="evenodd" fill-opacity="0.0588235"/><path d="M332.046 250.986C332.019 254.267 331.992 257.553 331.992 260.2L331.992 341.008C337.188 334.688 345.053 330.648 353.832 330.648 364.739 330.648 374.232 336.889 378.95 345.986L423.431 341.932C425.985 333.76 430.329 326.378 435.992 320.234L367.336 252.109C362.639 255.822 356.752 258.044 350.357 258.044 343.342 258.044 336.938 255.37 332.046 250.986Z" fill="#003D59" fill-rule="evenodd" fill-opacity="0.0588235"/><path d="M626.724 249.986C621.54 255.475 614.201 258.916 606.076 258.916 599.87 258.916 594.123 256.906 589.443 253.511L520.313 321.813C529.348 331.92 534.851 345.237 534.851 359.821 534.851 375.101 528.806 388.985 518.992 399.249L588.166 470.089C593.059 466.106 599.295 463.709 606.076 463.709 614.85 463.709 622.713 467.714 627.928 473.986 627.955 468.963 627.992 463.467 627.992 459.565L627.992 261.071C627.992 257.257 627.544 253.551 626.724 249.986Z" fill="#003D59" fill-rule="evenodd" fill-opacity="0.0588235"/><path d="M593.038 212.986C588.137 216.979 584.992 223.161 584.992 230.143 584.992 242.248 594.415 251.986 606.129 251.986 613.667 251.986 620.252 247.949 623.992 241.847 618.404 228.039 607.048 217.351 593.038 212.986Z" fill="#003D59" fill-rule="evenodd" fill-opacity="0.0588235"/><path d="M360.149 210.986C353.003 211.041 346.094 211.09 339.988 211.121 336.727 213.035 334.02 215.845 332.151 219.24 332.144 225.588 332.07 233.207 331.992 240.81 335.549 247.496 342.353 251.986 350.175 251.986 361.675 251.986 370.992 242.295 370.992 230.162 370.992 221.841 366.61 214.673 360.149 210.986Z" fill="#003D59" fill-rule="evenodd" fill-opacity="0.0588235"/><path d="M381.241 210.986C378.263 210.986 374.683 211.002 370.992 211.023 375.403 216.081 378.089 222.742 378.089 230.015 378.089 236.631 375.864 242.74 372.142 247.597L441.087 316.331C451.068 307.793 463.981 302.626 478.081 302.626 492.537 302.626 505.744 308.058 515.825 316.986L584.714 248.332C580.573 243.369 578.072 236.978 578.072 230.015 578.072 222.899 580.688 216.383 584.992 211.376 582.994 211.128 580.964 210.986 578.9 210.986Z" fill="#003D59" fill-rule="evenodd" fill-opacity="0.0588235"/><text fill="#003D59" font-family="Arial,Arial_MSFontService,sans-serif" font-weight="400" font-size="53" transform="translate(189.417 313)">Data quality action plans <tspan font-size="53" x="-77.1667" y="58">proactively prevent data quality </tspan><tspan font-size="53" x="-66.8333" y="116">problems damaging your work</tspan></text></g></svg>